<mxfile host="app.diagrams.net" modified="2023-12-11T15:57:55.562Z" agent="Mozilla/5.0 (X11; Linux x86_64) AppleWebKit/537.36 (KHTML, like Gecko) Chrome/120.0.0.0 Safari/537.36" etag="TifO86sGSNPxJKcvRoFi" version="22.1.7" type="onedrive">
  <diagram name="Page-1" id="8pWIlhQeft1BbV4XB5PI">
    <mxGraphModel grid="1" page="1" gridSize="10" guides="1" tooltips="1" connect="1" arrows="1" fold="1" pageScale="1" pageWidth="1333" pageHeight="750" math="0" shadow="0">
      <root>
        <mxCell id="0" />
        <mxCell id="1" parent="0" />
        <mxCell id="ebuZk2KY2Gl78M9SvuFA-13" value="" style="rounded=1;whiteSpace=wrap;html=1;strokeColor=#6c8ebf;fontFamily=Virgil;fontSource=https%3A%2F%2Ffonts.googleapis.com%2Fcss%3Ffamily%3DVirgil;fillColor=#dae8fc;" vertex="1" parent="1">
          <mxGeometry x="197" y="10" width="1123" height="730" as="geometry" />
        </mxCell>
        <mxCell id="Q-hCvYCgFIPU1It81Rc3-1" style="rounded=0;orthogonalLoop=1;jettySize=auto;html=1;entryX=0;entryY=0.5;entryDx=0;entryDy=0;edgeStyle=orthogonalEdgeStyle;curved=1;fillColor=#e51400;strokeColor=#B20000;" edge="1" parent="1" target="X2xWG3vY_pCT8LMNvTdC-4">
          <mxGeometry relative="1" as="geometry">
            <mxPoint x="370" y="601" as="targetPoint" />
            <mxPoint x="120" y="601.0526315789473" as="sourcePoint" />
          </mxGeometry>
        </mxCell>
        <mxCell id="hEBUWR5Z7KPlfxJ665o2-6" value="Central Authority" style="shape=umlActor;verticalLabelPosition=bottom;verticalAlign=top;html=1;outlineConnect=0;fillColor=#B20000;" vertex="1" parent="1">
          <mxGeometry x="30" y="470" width="90" height="180" as="geometry" />
        </mxCell>
        <mxCell id="Fux54dIL7xP7pdsSd3T3-1" style="edgeStyle=orthogonalEdgeStyle;rounded=0;orthogonalLoop=1;jettySize=auto;html=1;entryX=0;entryY=0.25;entryDx=0;entryDy=0;curved=1;fillColor=#0050ef;strokeColor=#001DBC;" edge="1" parent="1" target="X2xWG3vY_pCT8LMNvTdC-4">
          <mxGeometry relative="1" as="geometry">
            <mxPoint x="370" y="480" as="targetPoint" />
            <mxPoint x="120" y="280" as="sourcePoint" />
          </mxGeometry>
        </mxCell>
        <mxCell id="ebuZk2KY2Gl78M9SvuFA-14" value="Voter" style="shape=umlActor;verticalLabelPosition=bottom;verticalAlign=top;html=1;outlineConnect=0;fillColor=#0050ef;fontColor=#ffffff;strokeColor=#001DBC;" vertex="1" parent="1">
          <mxGeometry x="40" y="195" width="90" height="180" as="geometry" />
        </mxCell>
        <mxCell id="ebuZk2KY2Gl78M9SvuFA-20" value="&lt;font data-font-src=&quot;https://virgil.excalidraw.com/Virgil.woff2&quot; style=&quot;font-size: 20px;&quot;&gt;Ubuntu LTS 22.04 Server&lt;/font&gt;" style="text;html=1;align=center;verticalAlign=middle;whiteSpace=wrap;rounded=1;fillColor=#FFFFFF;strokeColor=#000000;fillStyle=solid;fontFamily=Virgil;fontSource=https%3A%2F%2Ffonts.googleapis.com%2Fcss%3Ffamily%3DVirgil;fontColor=#333333;" vertex="1" parent="1">
          <mxGeometry x="250" y="50" width="320" height="60" as="geometry" />
        </mxCell>
        <mxCell id="hEBUWR5Z7KPlfxJ665o2-13" value="" style="rounded=1;whiteSpace=wrap;html=1;container=0;fontFamily=Virgil;fontSource=https%3A%2F%2Ffonts.googleapis.com%2Fcss%3Ffamily%3DVirgil;fillColor=#fff2cc;strokeColor=#d6b656;fillStyle=solid;" vertex="1" parent="1">
          <mxGeometry x="720" y="20" width="586.67" height="680" as="geometry" />
        </mxCell>
        <mxCell id="hEBUWR5Z7KPlfxJ665o2-17" value="" style="shape=image;verticalLabelPosition=bottom;labelBackgroundColor=default;verticalAlign=top;aspect=fixed;imageAspect=0;image=data:image/svg+xml,PHN2ZyB4bWxucz0iaHR0cDovL3d3dy53My5vcmcvMjAwMC9zdmciIHZpZXdCb3g9Ii02LjUwIC02LjI1IDMzOC4wMCAxMDQuMDAiIHJvbGU9ImltZyI+PHRpdGxlPkh5cGVybGVkZ2VyIEZhYnJpYyBsb2dvPC90aXRsZT48c3R5bGU+c3ZnIHtlbmFibGUtYmFja2dyb3VuZDpuZXcgMCAwIDMyNi41IDkxfTwvc3R5bGU+PHN0eWxlPi5zdDF7ZmlsbDojZjE1NjRhfTwvc3R5bGU+PHBhdGggZD0iTTExOC41IDIwLjJsOC43LS4xLjEgOC44aDQuNGwtLjEtMjAuM2gtNC40djcuNmgtOC43VjguNmwtNC41LjEuMSAyMC4zIDQuNS0uMXptMjQuMSA4LjhsNC41LS4xLS4xLTguNiA3LjYtMTEuN2gtNS4zbC00LjUgNy42LTQuNC03LjVoLTUuNWw3LjcgMTEuNnptMTkuNy0uMVYyMWgzLjNjMS4xIDAgMi4xLS4xIDMtLjMuOS0uMiAxLjctLjUgMi40LTFzMS4yLTEuMSAxLjYtMS45Yy40LS44LjYtMS44LjYtM3MtLjItMi4yLS42LTNjLS40LS44LTEtMS40LTEuNy0xLjlzLTEuNS0uOC0yLjUtMWMtLjktLjItMS45LS4zLTMtLjNoLTcuNmwuMSAyMC4zaDQuNHptMi4yLTE2LjVjLjQgMCAuOSAwIDEuMy4xLjUgMCAuOS4yIDEuMy4zLjQuMi43LjQuOS43LjIuMy40LjcuNCAxLjJzLS4xLjktLjMgMS4yYy0uMi4zLS40LjYtLjcuOC0uMy4yLS42LjMtMSAuNC0uNC4xLS44LjEtMS4yLjFoLTN2LTQuOGgyLjN6bTI2LjEgMTYuNXYtNC4xaC05Ljl2LTQuMWw4LjgtLjF2LTQuMWgtOC44di0zLjdsOS4zLS4xVjguNmgtMTMuOGwuMSAyMC40em0xNC4xIDBoNS40bC01LjItOC42YzEuNC0uMyAyLjUtLjkgMy4zLTEuOS43LTEgMS4xLTIuMiAxLjEtMy43IDAtMS4yLS4yLTIuMi0uNi0zLS40LS44LTEtMS40LTEuNy0xLjlzLTEuNS0uOC0yLjQtMWMtLjktLjItMS45LS4zLTIuOS0uM2gtNy45bC4xIDIwLjNoNC41di04LjFoMi4ybDQuMSA4LjJ6TTE5OC4yIDE3di00LjZoMi45Yy40IDAgLjggMCAxLjIuMS40LjEuOC4yIDEuMS4zLjMuMi42LjQuOC43LjIuMy4zLjcuMyAxLjIgMCAuNi0uMSAxLS40IDEuMy0uMi4zLS41LjUtLjkuN2wtMS4yLjNoLTMuOHpNMjI2IDI4Ljl2LTQuMmwtOC4zLjEtLjEtMTYuMmgtNC41bC4xIDIwLjN6bTE3LjUgMHYtNC4ybC05LjguMS0uMS00LjEgOC45LS4xLS4xLTQuMWgtOC44di0zLjhoOS4zVjguNmgtMTMuOGwuMSAyMC40em0xOC41LTIuNmMxLS45IDEuOS0xLjkgMi41LTMuMi42LTEuMy45LTIuNy45LTQuNCAwLTEuOS0uMy0zLjQtMS00LjctLjYtMS4zLTEuNS0yLjMtMi42LTMuMi0xLjEtLjgtMi40LTEuNC0zLjgtMS43LTEuNS0uNC0zLS41LTQuNi0uNWgtNi43bC4xIDIwLjNoNy4zYzEuNSAwIDMtLjIgNC4zLS43IDEuNC0uNCAyLjYtMS4xIDMuNi0xLjl6bS04LjUtMS41aC0yLjNsLS4xLTEyLjFoMi42Yy45IDAgMS44LjEgMi43LjMuOC4yIDEuNi42IDIuMiAxLjEuNi41IDEuMSAxLjEgMS41IDEuOC40LjcuNiAxLjYuNiAyLjYgMCAxLjEtLjIgMi4xLS41IDIuOS0uNC44LS45IDEuNC0xLjUgMS45cy0xLjQuOC0yLjMgMS4xYy0uOS4zLTEuOC40LTIuOS40em0yNi42LTcuOVYyMWgzLjZ2My4zYy0uNC4yLTEgLjUtMS43LjctLjcuMi0xLjUuMy0yLjUuM3MtMS44LS4yLTIuNi0uNS0xLjQtLjgtMi0xLjRjLS42LS42LTEtMS4zLTEuMy0yLjEtLjMtLjgtLjUtMS43LS41LTIuNiAwLS45LjEtMS44LjQtMi42LjMtLjguNy0xLjUgMS4zLTIuMS42LS42IDEuMi0xIDItMS40LjgtLjMgMS42LS41IDIuNi0uNSAxLjEgMCAyLjEuMiAyLjkuNS44LjMgMS41LjggMi4xIDEuNGwzLjEtMy41Yy0xLTEtMi4yLTEuNi0zLjYtMi0xLjQtLjQtMi45LS42LTQuNS0uNnMtMy4xLjMtNC40LjhjLTEuMy41LTIuNSAxLjItMy41IDIuMi0xIC45LTEuNyAyLjEtMi4zIDMuNC0uNSAxLjMtLjggMi44LS44IDQuNCAwIDEuNi4zIDMuMS44IDQuNC42IDEuMyAxLjMgMi40IDIuMyAzLjQgMSAuOSAyLjEgMS42IDMuNSAyLjEgMS4zLjUgMi44LjcgNC40LjcgMS41IDAgMy0uMiA0LjQtLjUgMS40LS4zIDIuOC0uOCA0LjEtMS41bC4xLTEwLjUtNy45LjF6bTI1LjUgMTEuNXYtNC4xaC05LjhsLS4xLTQuMSA4LjktLjEtLjEtNC4xLTguOC4xdi0zLjhsOS4zLS4xVjguMWwtMTMuOC4xLjEgMjAuM3ptNy43IDB2LTguMWgyLjJsNC4zIDguMWg1LjRsLTUuMi04LjZjMS40LS4zIDIuNS0uOSAzLjMtMS45LjctMSAxLjEtMi4yIDEuMS0zLjcgMC0xLjItLjItMi4yLS42LTMtLjQtLjgtMS0xLjQtMS43LTEuOXMtMS41LS44LTIuNC0xYy0uOS0uMi0xLjktLjMtMi45LS4zaC03LjlsLjEgMjAuMyA0LjMuMXptMi45LTE2LjVjLjQgMCAuOCAwIDEuMi4xLjQuMS44LjIgMS4xLjMuMy4yLjYuNC44LjcuMi4zLjMuNy4zIDEuMiAwIC42LS4xIDEtLjQgMS4zLS4yLjMtLjUuNS0uOS43bC0xLjIuM0gzMTMuMnYtNC42aDN6IiBmaWxsPSIjMjQyNzJhIi8+PHBhdGggY2xhc3M9InN0MSIgZD0iTTExNC4yIDQzLjVoMjYuMnY1LjNoLTIwLjV2MTMuMUgxMzl2NS4zaC0xOS4xdjE4aC01LjZWNDMuNXptNDMuMyAwaDUuMWwxNy44IDQxLjdoLTYuNmwtNC4yLTEwLjNoLTE5LjhsLTQuMSAxMC4zaC02LjZsMTguNC00MS43em0xMC4xIDI2LjRsLTcuOC0xOS4xaC0uMWwtNy45IDE5LjFoMTUuOHptMTUuOS0yNi40SDE5OGM3LjIgMCAxMi43IDMuNCAxMi43IDEwLjQgMCA0LjgtMi45IDcuOC03LjIgOS4ydi4xYzUgLjQgOSA0LjggOSAxMC40IDAgNy41LTYuNSAxMS42LTE0LjcgMTEuNmgtMTQuM1Y0My41em01LjcgMTcuM2g3LjdjNC4zIDAgNy44LTEuNyA3LjgtNi4yIDAtMy4zLTIuMS02LjEtNi42LTYuMWgtOC45djEyLjN6bTAgMTkuNGg4LjNjMy40IDAgOS0xLjIgOS03LjEgMC00LjktMy41LTcuNC04LjktNy40aC04LjR2MTQuNXptMzAuMi0zNi43aDE0LjdjMTAuNyAwIDEzLjQgNi40IDEzLjQgMTEuNyAwIDUuMy0zLjkgMTAuMy0xMC4yIDExbDExLjggMTlIMjQybC0xMC42LTE4LjRoLTYuM3YxOC40aC01LjdWNDMuNXptNS43IDE4LjRoNy40YzQuNSAwIDguOS0xLjEgOC45LTYuN3MtNC41LTYuNy04LjktNi43aC03LjR2MTMuNHptMzAuMy0xOC40aDUuN3Y0MS43aC01LjdWNDMuNXptNDMgOWMtMi40LTMuMS02LjItNC44LTEwLjEtNC44LTkuNCAwLTE1LjUgNy41LTE1LjUgMTYuOSAwIDguOCA1LjggMTYuMiAxNS41IDE2LjIgNC44IDAgOC40LTIuMSAxMC45LTUuNmw0LjggMy42Yy0xLjIgMS43LTYuMiA3LjMtMTUuOCA3LjMtMTMuMiAwLTIxLjQtMTEuMS0yMS40LTIxLjUgMC0xMi45IDguOS0yMi4yIDIxLjctMjIuMiA1LjUgMCAxMS4yIDIuMSAxNC42IDYuNWwtNC43IDMuNnoiLz48cGF0aCBjbGFzcz0ic3QxIiBkPSJNNTEuNSA4NS4yYy0uNC44LTEuNCAxLjItMi4yLjhsLTE4LjYtOC45Yy0uOC0uNC0xLjItMS40LS44LTIuMmwyLTQuMWMuNC0uOCAxLjQtMS4yIDIuMi0uOGwxOC42IDguOWMuOC40IDEuMiAxLjQuOCAyLjJsLTIgNC4xek0xNC42IDY3LjZjLS40LjgtMS40IDEuMi0yLjIuOEwxIDYzYy0uOC0uNC0xLjItMS40LS44LTIuMmwyLTQuMWMuNC0uOCAxLjQtMS4yIDIuMi0uOGwxMS40IDUuNGMuOC40IDEuMiAxLjQuOCAyLjJsLTIgNC4xem03NC41LTMyLjRjLS40LjgtMS40IDEuMi0yLjIuOGwtMTEuNC01LjRjLS44LS40LTEuMi0xLjQtLjgtMi4ybDItNC4xYy40LS44IDEuNC0xLjIgMi4yLS44bDExLjQgNS40Yy44LjQgMS4yIDEuNC44IDIuMmwtMiA0LjF6TTU5LjQgMjEuMWMtLjQuOC0xLjQgMS4yLTIuMi44TDM4LjcgMTNjLS44LS40LTEuMi0xLjQtLjgtMi4ybDItNC4xYy40LS44IDEuNC0xLjIgMi4yLS44bDE4LjUgOC44Yy44LjQgMS4yIDEuNC44IDIuMmwtMiA0LjJ6bS0yNy4yIDkuNmMtLjQuOC0xLjQgMS4yLTIuMi44bC0xMS40LTUuNGMtLjgtLjQtMS4yLTEuNC0uOC0yLjJsMi00LjFjLjQtLjggMS40LTEuMiAyLjItLjhsMTEuNCA1LjRjLjguNCAxLjIgMS40LjggMi4ybC0yIDQuMXptMzYuOSAxNy42Yy0uNC44LTEuNCAxLjItMi4yLjhsLTE4LjYtOC45Yy0uOC0uNC0xLjItMS40LS44LTIuMmwyLTQuMWMuNC0uOCAxLjQtMS4yIDIuMi0uOEw3MC4zIDQyYy44LjQgMS4yIDEuNC44IDIuMmwtMiA0LjF6bTIuNCAyMy44Yy0uNC44LTEuNCAxLjItMi4yLjhsLTExLjQtNS41Yy0uOC0uNC0xLjItMS40LS44LTIuMmwyLTQuMWMuNC0uOCAxLjQtMS4yIDIuMi0uOGwxMS40IDUuNWMuOC40IDEuMiAxLjQuOCAyLjJsLTIgNC4xek00MS44IDU4Yy0uNC44LTEuNCAxLjItMi4yLjhMMjEgNDkuOWMtLjgtLjQtMS4yLTEuNC0uOC0yLjJsMi00LjFjLjQtLjggMS40LTEuMiAyLjItLjhMNDMgNTEuNmMuOC40IDEuMiAxLjQuOCAyLjJsLTIgNC4yeiIvPjxwYXRoIGQ9Ik0xMi43IDUyLjljLS40LjgtMS40IDEuMi0yLjIuOGwtNC4xLTJjLS44LS40LTEuMi0xLjQtLjgtMi4ybDguOS0xOC42Yy40LS44IDEuNC0xLjIgMi4yLS44bDQuMSAyYy44LjQgMS4yIDEuNC44IDIuMmwtOC45IDE4LjZ6TTMwLjMgMTZjLS40LjgtMS40IDEuMi0yLjIuOGwtNC4xLTJjLS44LS40LTEuMi0xLjQtLjgtMi4ybDUuNC0xMS4zQzI5IC41IDMwIC4xIDMwLjguNWw0LjEgMmMuOC40IDEuMiAxLjQuOCAyLjJMMzAuMyAxNnptMzIuNCA3NC40Yy0uNC44LTEuNCAxLjItMi4yLjhsLTQuMS0yYy0uOC0uNC0xLjItMS40LS44LTIuMkw2MSA3NS43Yy40LS44IDEuNC0xLjIgMi4yLS44bDQuMSAyYy44LjQgMS4yIDEuNC44IDIuMmwtNS40IDExLjN6bTE0LjEtMjkuNWMtLjQuOC0xLjQgMS4yLTIuMi44bC00LjEtMmMtLjgtLjQtMS4yLTEuNC0uOC0yLjJsOC45LTE4LjZjLjQtLjggMS40LTEuMiAyLjItLjhsNC4xIDJjLjguNCAxLjIgMS40LjggMi4ybC04LjkgMTguNnptLTkuNi0yNy4zYy0uNC44LTEuNCAxLjItMi4yLjhsLTQuMS0yYy0uOC0uNC0xLjItMS40LS44LTIuMkw2NS40IDE5Yy40LS44IDEuNC0xLjIgMi4yLS44bDQuMSAyYy44LjQgMS4yIDEuNC44IDIuMmwtNS4zIDExLjJ6TTQ5LjYgNzAuNWMtLjQuOC0xLjQgMS4yLTIuMi44bC00LjEtMmMtLjgtLjQtMS4yLTEuNC0uOC0yLjJsOC45LTE4LjZjLjQtLjggMS40LTEuMiAyLjItLjhsNC4xIDJjLjguNCAxLjIgMS40LjggMi4ybC04LjkgMTguNnptLTIzLjggMi4zYy0uNC44LTEuNCAxLjItMi4yLjhsLTQuMS0yYy0uOC0uNC0xLjItMS40LS44LTIuMkwyNCA1OC4xYy40LS44IDEuNC0xLjIgMi4yLS44bDQuMSAyYy44LjQgMS4yIDEuNC44IDIuMmwtNS4zIDExLjN6bTE0LjEtMjkuNWMtLjQuOC0xLjQgMS4yLTIuMi44bC00LjEtMmMtLjgtLjQtMS4yLTEuNC0uOC0yLjJsOC45LTE4LjZjLjQtLjggMS40LTEuMiAyLjItLjhsNC4xIDJjLjguNCAxLjIgMS40LjggMi4ybC04LjkgMTguNnoiIGZpbGw9IiM5N2Q2ZDciLz48L3N2Zz4=;container=0;fontFamily=Virgil;fontSource=https%3A%2F%2Ffonts.googleapis.com%2Fcss%3Ffamily%3DVirgil;" vertex="1" parent="1">
          <mxGeometry x="876.8" y="528.96" width="273.08" height="84.03" as="geometry" />
        </mxCell>
        <mxCell id="hEBUWR5Z7KPlfxJ665o2-11" value="" style="shape=image;verticalLabelPosition=bottom;labelBackgroundColor=default;verticalAlign=top;aspect=fixed;imageAspect=0;image=data:image/svg+xml,PHN2ZyB4bWxuczp4bGluaz0iaHR0cDovL3d3dy53My5vcmcvMTk5OS94bGluayIgeG1sbnM9Imh0dHA6Ly93d3cudzMub3JnLzIwMDAvc3ZnIiB4bWw6c3BhY2U9InByZXNlcnZlIiBzdHlsZT0iZW5hYmxlLWJhY2tncm91bmQ6bmV3IDAgMCAxMjAwIDMwOTsiIHZpZXdCb3g9IjAgMCAxMjAwIDMwOSIgeT0iMHB4IiB4PSIwcHgiIGlkPSJMYXllcl8xIiB2ZXJzaW9uPSIxLjEiPiYjeGE7PHN0eWxlIHR5cGU9InRleHQvY3NzIj4mI3hhOwkuc3Qwe2ZpbGw6IzFENjNFRDt9JiN4YTs8L3N0eWxlPiYjeGE7PHBhdGggZD0iTTM3OS42LDExMS43Yy0yLjMtMTYuNy0xMS41LTMxLjItMjguMS00NC4zbC05LjYtNi41bC02LjQsOS43Yy04LjIsMTIuNS0xMi4zLDI5LjktMTEsNDYuNiYjMTA7JiM5O2MwLjYsNS44LDIuNSwxNi40LDguNCwyNS41Yy01LjksMy4zLTE3LjYsNy43LTMzLjIsNy40SDEuN2wtMC42LDMuNWMtMi44LDE2LjctMi44LDY5LDMwLjcsMTA5LjFjMjUuNSwzMC41LDYzLjYsNDYsMTEzLjQsNDYmIzEwOyYjOTtjMTA4LDAsMTg3LjgtNTAuMywyMjUuMy0xNDEuOWMxNC43LDAuMyw0Ni40LDAuMSw2Mi43LTMxLjRjMC40LTAuNywxLjQtMi42LDQuMi04LjZsMS42LTMuM2wtOS4xLTYuMiYjMTA7JiM5O0M0MTkuOSwxMTAuOCwzOTcuMiwxMDguMywzNzkuNiwxMTEuN0wzNzkuNiwxMTEuN3ogTTI0MCwwaC00NS4zdjQxLjdIMjQwVjB6IE0yNDAsNTAuMWgtNDUuM3Y0MS43SDI0MFY1MC4xeiBNMTg2LjQsNTAuMWgtNDUuMyYjMTA7JiM5O3Y0MS43aDQ1LjNWNTAuMXogTTEzMi45LDUwLjFIODcuNnY0MS43aDQ1LjNWNTAuMXogTTc5LjMsMTAwLjJIMzR2NDEuN2g0NS4zVjEwMC4yeiBNMTMyLjksMTAwLjJIODcuNnY0MS43aDQ1LjNWMTAwLjJ6JiMxMDsmIzk7IE0xODYuNCwxMDAuMmgtNDUuM3Y0MS43aDQ1LjNWMTAwLjJ6IE0yNDAsMTAwLjJoLTQ1LjN2NDEuN0gyNDBWMTAwLjJ6IE0yOTMuNiwxMDAuMmgtNDUuM3Y0MS43aDQ1LjNWMTAwLjJ6IE01NjksOTAuOCYjMTA7JiM5O2MtMy4zLDAtNi4xLDEuMS04LjIsMy4zYy0yLjIsMi4yLTMuMyw1LjEtMy4zLDguNFYxNTljLTExLjItOS4zLTI0LjEtMTMuOS0zOC45LTEzLjljLTE3LjEsMC0zMS43LDYuMi00My44LDE4LjYmIzEwOyYjOTtjLTEyLjEsMTIuNC0xOC4xLDI3LjMtMTguMSw0NC44czYuMSwzMi40LDE4LjEsNDQuOGMxMi4xLDEyLjQsMjYuNywxOC42LDQzLjgsMTguNnMzMS42LTYuMiw0My44LTE4LjYmIzEwOyYjOTtjMTIuMS0xMi4yLDE4LjEtMjcuMiwxOC4xLTQ0LjhWMTAyLjZjMC0zLjQtMS4xLTYuMi0zLjQtOC40QzU3NSw5MS45LDU3Mi4zLDkwLjgsNTY5LDkwLjh6IE01NTQuNSwyMjMuOWMtMiw0LjgtNC44LDktOC4zLDEyLjYmIzEwOyYjOTtzLTcuNiw2LjUtMTIuMyw4LjZzLTkuOCwzLjItMTUuMiwzLjJzLTEwLjUtMS0xNS4zLTMuMmMtNC43LTIuMS04LjgtNS0xMi4zLTguNnMtNi4yLTcuOC04LjItMTIuNnMtMy0xMC0zLTE1LjRzMS0xMC42LDMtMTUuNCYjMTA7JiM5O2MyLTQuOCw0LjgtOSw4LjItMTIuNmMzLjUtMy42LDcuNi02LjQsMTIuMy04LjZjNC43LTIuMSw5LjgtMy4yLDE1LjMtMy4yczEwLjQsMSwxNS4yLDMuMmM0LjcsMi4xLDguOCw1LDEyLjMsOC42czYuMyw3LjgsOC4zLDEyLjYmIzEwOyYjOTtzMyw5LjksMywxNS4zQzU1Ny41LDIxMy45LDU1Ni41LDIxOSw1NTQuNSwyMjMuOUw1NTQuNSwyMjMuOXogTTEwNzUuNiwxNjMuN2MtMTIuMi0xMi40LTI2LjktMTguNi00My44LTE4LjYmIzEwOyYjOTtjLTE3LDAtMzEuNyw2LjItNDMuOCwxOC42Yy0xMi4xLDEyLjQtMTguMSwyNy4zLTE4LjEsNDQuOHM2LjEsMzIuNCwxOC4xLDQ0LjhjMTIuMSwxMi40LDI2LjcsMTguNiw0My44LDE4LjYmIzEwOyYjOTtjMTUuNiwwLDI5LTUuMSw0MC41LTE1LjRjMi4yLTIuMywzLjMtNS4yLDMuMy04LjVzLTEuMS02LjItMy4zLTguNGMtMi4yLTIuMi00LjktMy4zLTguMi0zLjNjLTIuOSwwLjEtNS40LDEtNy42LDMmIzEwOyYjOTtjLTMuNSwzLTcuMiw1LjMtMTEuMyw2LjhjLTQuMSwxLjUtOC41LDIuMy0xMy40LDIuM2MtNC4zLDAtOC40LTAuNy0xMi4zLTJjLTMuOS0xLjQtNy42LTMuMy0xMC44LTUuN2MtMy4zLTIuNS02LjEtNS40LTguNi04LjgmIzEwOyYjOTtjLTIuNC0zLjQtNC4zLTcuMi01LjUtMTEuNGg4Ny42YzMuMiwwLDYtMS4xLDguMi0zLjNjMi4zLTIuMiwzLjQtNS4xLDMuNC04LjRjMC04LjgtMS41LTE2LjktNC41LTI0LjQmIzEwOyYjOTtDMTA4Ni4yLDE3Ni43LDEwODEuNywxNjkuOSwxMDc1LjYsMTYzLjdMMTA3NS42LDE2My43eiBNOTk0LjQsMTk2LjhjMS4yLTQuMSwzLTcuOSw1LjQtMTEuNGMyLjQtMy40LDUuMy02LjQsOC42LTguOCYjMTA7JiM5O2MzLjMtMi41LDctNC4zLDExLTUuN3M4LjEtMiwxMi4zLTJjNC4yLDAsOC4zLDAuNywxMi4yLDJjNCwxLjQsNy42LDMuMywxMC44LDUuN2MzLjMsMi41LDYuMiw1LjQsOC42LDguOGMyLjUsMy40LDQuMyw3LjIsNS42LDExLjQmIzEwOyYjOTtIOTk0LjRMOTk0LjQsMTk2Ljh6IE0xMTk2LjksMTUzLjFjLTIuMS0yLTQuNy0zLjYtNy44LTQuOGMtMy4xLTEuMi02LjYtMi0xMC4zLTIuNGMtMy43LTAuNS03LjItMC43LTEwLjUtMC43JiMxMDsmIzk7Yy03LjQsMC0xNC4zLDEuMi0yMC44LDMuNnMtMTIuNSw1LjktMTgsMTAuNFYxNTdjMC0zLjMtMS4xLTYtMy40LTguM3MtNC45LTMuNS04LjEtMy41cy02LDEuMi04LjIsMy41Yy0yLjMsMi4zLTMuNCw1LjEtMy40LDguMyYjMTA7JiM5O3YxMDMuMmMwLDMuMywxLjEsNiwzLjQsOC4zczUsMy41LDguMiwzLjVzNS45LTEuMiw4LjEtMy41YzIuMy0yLjMsMy40LTUuMSwzLjQtOC4zdi01MS42YzAtNS41LDEtMTAuNywzLTE1LjVzNC44LTksOC4zLTEyLjYmIzEwOyYjOTtzNy42LTYuNCwxMi4zLTguNWM0LjctMi4xLDkuOC0zLjEsMTUuMi0zLjFjNS40LDAsMTAuNSwxLDE1LjIsMi44YzEuOCwwLjgsMy41LDEuMyw0LjksMS4zYzEuNiwwLDMuMS0wLjMsNC41LTAuOSYjMTA7JiM5O2MxLjQtMC42LDIuNi0xLjUsMy43LTIuNWMxLTEuMSwxLjktMi4zLDIuNS0zLjhjMC42LTEuNCwwLjktMywwLjktNC42QzEyMDAsMTU3LjgsMTE5OSwxNTUuMSwxMTk2LjksMTUzLjFMMTE5Ni45LDE1My4xeiYjMTA7JiM5OyBNNjk5LjYsMTYzLjdjLTEyLjItMTIuNC0yNi45LTE4LjYtNDMuOC0xOC42cy0zMS43LDYuMi00My44LDE4LjZjLTEyLjEsMTIuNC0xOC4xLDI3LjMtMTguMSw0NC44czYuMSwzMi40LDE4LjEsNDQuOCYjMTA7JiM5O2MxMi4xLDEyLjQsMjYuNywxOC42LDQzLjgsMTguNnMzMS42LTYuMiw0My44LTE4LjZjMTIuMS0xMi4yLDE4LjEtMjcuMiwxOC4xLTQ0LjhjLTAuMS04LjgtMS42LTE2LjktNC42LTI0LjMmIzEwOyYjOTtDNzEwLjEsMTc2LjgsNzA1LjYsMTY5LjksNjk5LjYsMTYzLjd6IE02OTEuNiwyMjMuOWMtMiw0LjgtNC44LDktOC4zLDEyLjZzLTcuNiw2LjUtMTIuMyw4LjZzLTkuOCwzLjItMTUuMiwzLjJzLTEwLjUtMS0xNS4zLTMuMiYjMTA7JiM5O2MtNC43LTIuMS04LjgtNS0xMi4zLTguNnMtNi4yLTcuOC04LjItMTIuNnMtMy0xMC0zLTE1LjRzMS0xMC42LDMtMTUuNGMyLTQuOCw0LjgtOSw4LjItMTIuNmMzLjUtMy42LDcuNi02LjQsMTIuMy04LjYmIzEwOyYjOTtjNC43LTIuMSw5LjgtMy4yLDE1LjMtMy4yczEwLjQsMSwxNS4yLDMuMmM0LjcsMi4xLDguOCw1LDEyLjMsOC42czYuMyw3LjgsOC4zLDEyLjZzMyw5LjksMywxNS4zJiMxMDsmIzk7QzY5NC42LDIxMy45LDY5My42LDIxOSw2OTEuNiwyMjMuOUw2OTEuNiwyMjMuOXogTTk1Ny4yLDE1Ni45YzAtMS42LTAuMy0zLjEtMC45LTQuNWMtMC42LTEuNC0xLjQtMi43LTIuNS0zLjgmIzEwOyYjOTtjLTEtMS4xLTIuMy0yLTMuNy0yLjVjLTEuNC0wLjYtMi45LTAuOS00LjUtMC45Yy0yLjMsMC00LjQsMC42LTYuMiwxLjhsLTY2LjIsNDR2LTg4LjNjMC0zLjMtMS4xLTYuMS0zLjQtOC40cy00LjktMy41LTguMS0zLjUmIzEwOyYjOTtzLTYsMS4yLTguMiwzLjVjLTIuMywyLjMtMy40LDUuMS0zLjQsOC40VjI2MGMwLDMuMywxLjEsNi4xLDMuNCw4LjRjMi4zLDIuMyw1LDMuNSw4LjIsMy41czUuOS0xLjIsOC4xLTMuNSYjMTA7JiM5O2MyLjMtMi4zLDMuNC01LjEsMy40LTguNHYtNDAuOWwxMy41LTkuMWw1MS4xLDU4LjdjMi4xLDIsNC43LDMsNy43LDNjMS42LDAsMy4xLTAuMyw0LjUtMC45czIuNi0xLjUsMy43LTIuNWMxLTEuMSwxLjktMi4zLDIuNS0zLjgmIzEwOyYjOTtjMC42LTEuNCwwLjktMywwLjktNC41YzAtMy4xLTEuMS01LjgtMy4yLTguM0w5MDYuNSwxOTdsNDYuNC0zMC44Qzk1NS44LDE2NC4yLDk1Ny4yLDE2MS4xLDk1Ny4yLDE1Ni45TDk1Ny4yLDE1Ni45eiBNNzY1LjEsMTgwLjQmIzEwOyYjOTtjMy41LTMuNiw3LjctNi40LDEyLjQtOC41czkuOC0zLjEsMTUuMi0zLjFjNC45LDAsOS40LDAuOCwxMy41LDIuNXM4LjEsNC4xLDExLjgsNy4zYzIuMiwxLjgsNC43LDIuNyw3LjUsMi43JiMxMDsmIzk7YzMuMywwLDYuMS0xLjEsOC4yLTMuNGMyLjItMi4zLDMuMy01LjEsMy4zLTguNXMtMS4zLTYuNS00LTguOWMtMTEuNC0xMC4zLTI0LjgtMTUuNC00MC40LTE1LjRjLTE3LjEsMC0zMS43LDYuMi00My44LDE4LjYmIzEwOyYjOTtjLTEyLjEsMTIuNC0xOC4xLDI3LjMtMTguMSw0NC44czYuMSwzMi40LDE4LjEsNDQuOGMxMi4xLDEyLjQsMjYuNywxOC42LDQzLjgsMTguNmMxNS41LDAsMjktNS4xLDQwLjQtMTUuNCYjMTA7JiM5O2MyLjQtMi41LDMuNy01LjQsMy43LTguN3MtMS4xLTYuMi0zLjMtOC40cy00LjktMy4zLTguMi0zLjNjLTIuOCwwLjEtNS4yLDAuOS03LjMsMi41Yy0zLjcsMy4zLTcuNiw1LjctMTEuNyw3LjMmIzEwOyYjOTtjLTQuMSwxLjYtOC42LDIuNC0xMy41LDIuNGMtNS40LDAtMTAuNC0xLTE1LjItMy4xYy00LjctMi4xLTguOS00LjktMTIuNC04LjVjLTMuNS0zLjUtNi4zLTcuOC04LjQtMTIuNmMtMi00LjgtMy0xMC0zLTE1LjUmIzEwOyYjOTtzMS0xMC43LDMtMTUuNUM3NTguOCwxODguMiw3NjEuNiwxODQuMSw3NjUuMSwxODAuNEw3NjUuMSwxODAuNHoiIGNsYXNzPSJzdDAiLz4mI3hhOzwvc3ZnPg==;container=0;fontFamily=Virgil;fontSource=https%3A%2F%2Ffonts.googleapis.com%2Fcss%3Ffamily%3DVirgil;" vertex="1" parent="1">
          <mxGeometry x="876.7933333333333" y="619.9860975609755" width="273.0791489361702" height="70.31489361702128" as="geometry" />
        </mxCell>
        <mxCell id="hEBUWR5Z7KPlfxJ665o2-22" value="&lt;div style=&quot;&quot;&gt;&lt;font data-font-src=&quot;https://fonts.googleapis.com/css?family=Virgil&quot; style=&quot;font-size: 12px;&quot;&gt;Container:&lt;/font&gt;&lt;/div&gt;&lt;div style=&quot;&quot;&gt;&lt;font style=&quot;font-size: 12px;&quot;&gt;REST API to Blockchain Containers&lt;/font&gt;&lt;/div&gt;" style="rounded=1;whiteSpace=wrap;html=1;container=0;fontFamily=Virgil;fontSource=https%3A%2F%2Ffonts.googleapis.com%2Fcss%3Ffamily%3DVirgil;" vertex="1" parent="1">
          <mxGeometry x="750" y="315" width="180" height="60" as="geometry" />
        </mxCell>
        <mxCell id="QWXrXlOP-lTuG6fcTBHB-6" value="&lt;font style=&quot;font-size: 12px;&quot;&gt;Container:&lt;br&gt;Blockchain Explorer User Interface&lt;br&gt;&lt;/font&gt;" style="rounded=1;whiteSpace=wrap;html=1;container=0;fontFamily=Virgil;fontSource=https%3A%2F%2Ffonts.googleapis.com%2Fcss%3Ffamily%3DVirgil;" vertex="1" parent="1">
          <mxGeometry x="750" y="440" width="190" height="60" as="geometry" />
        </mxCell>
        <mxCell id="zKheHPCC7T8ApLlYYGeJ-2" value="&lt;div style=&quot;text-align: left;&quot;&gt;&lt;span style=&quot;font-size: 19px; background-color: initial;&quot;&gt;The other containers:&lt;/span&gt;&lt;/div&gt;&lt;div style=&quot;font-size: 19px; text-align: left;&quot;&gt;&lt;span style=&quot;background-color: initial;&quot;&gt;orderer&lt;/span&gt;&lt;/div&gt;&lt;font style=&quot;font-size: 19px;&quot; data-font-src=&quot;https://fonts.googleapis.com/css?family=Virgil&quot; face=&quot;Virgil&quot;&gt;&lt;div style=&quot;text-align: left;&quot;&gt;&lt;span style=&quot;background-color: initial;&quot;&gt;cli.orderer&lt;/span&gt;&lt;/div&gt;&lt;div style=&quot;text-align: left;&quot;&gt;&lt;span style=&quot;background-color: initial;&quot;&gt;cli.org&lt;/span&gt;&lt;/div&gt;&lt;div style=&quot;text-align: left;&quot;&gt;&lt;span style=&quot;background-color: initial;&quot;&gt;ca.orderer&lt;/span&gt;&lt;/div&gt;&lt;div style=&quot;text-align: left;&quot;&gt;&lt;span style=&quot;background-color: initial;&quot;&gt;ca.org2&lt;/span&gt;&lt;/div&gt;&lt;/font&gt;&lt;div style=&quot;text-align: left;&quot;&gt;&lt;span style=&quot;font-size: 19px;&quot;&gt;&lt;br&gt;&lt;/span&gt;&lt;/div&gt;" style="rounded=1;whiteSpace=wrap;html=1;container=0;fontFamily=Virgil;fontSource=https%3A%2F%2Ffonts.googleapis.com%2Fcss%3Ffamily%3DVirgil;" vertex="1" parent="1">
          <mxGeometry x="980" y="160" width="270" height="350" as="geometry" />
        </mxCell>
        <mxCell id="X2xWG3vY_pCT8LMNvTdC-2" value="&lt;div style=&quot;font-size: 19px;&quot;&gt;dk still want anot&lt;/div&gt;&lt;div style=&quot;font-size: 19px;&quot;&gt;matrict+&lt;/div&gt;&lt;div style=&quot;font-size: 19px;&quot;&gt;but only verifty&lt;/div&gt;" style="rounded=1;whiteSpace=wrap;html=1;sketch=1;curveFitting=1;jiggle=2;container=0;fontFamily=Virgil;fontSource=https%3A%2F%2Ffonts.googleapis.com%2Fcss%3Ffamily%3DVirgil;fillColor=#f8cecc;strokeColor=#b85450;" vertex="1" parent="1">
          <mxGeometry x="10" y="10" width="170" height="110" as="geometry" />
        </mxCell>
        <mxCell id="4WT0cPkqcqAhJk5FBI5L-6" value="&lt;div style=&quot;font-size: 19px;&quot;&gt;Peer&lt;/div&gt;" style="rounded=1;whiteSpace=wrap;html=1;container=0;fontFamily=Virgil;fontSource=https%3A%2F%2Ffonts.googleapis.com%2Fcss%3Ffamily%3DVirgil;fillColor=#f8cecc;strokeColor=#b85450;fillStyle=solid;align=center;" vertex="1" parent="1">
          <mxGeometry x="750" y="50" width="210" height="140" as="geometry" />
        </mxCell>
        <mxCell id="4WT0cPkqcqAhJk5FBI5L-8" value="" style="endArrow=classic;html=1;edgeStyle=orthogonalEdgeStyle;rounded=1;entryX=0.5;entryY=1;entryDx=0;entryDy=0;fillColor=#e51400;strokeColor=#B20000;" edge="1" parent="1" source="hEBUWR5Z7KPlfxJ665o2-6" target="QWXrXlOP-lTuG6fcTBHB-6">
          <mxGeometry width="50" height="50" relative="1" as="geometry">
            <mxPoint x="570" y="510" as="sourcePoint" />
            <mxPoint x="650" y="300" as="targetPoint" />
            <Array as="points">
              <mxPoint x="250" y="610" />
              <mxPoint x="250" y="680" />
              <mxPoint x="845" y="680" />
            </Array>
          </mxGeometry>
        </mxCell>
        <mxCell id="4WT0cPkqcqAhJk5FBI5L-10" value="" style="endArrow=classic;html=1;exitX=1;exitY=0.633;exitDx=0;exitDy=0;exitPerimeter=0;entryX=0;entryY=0.5;entryDx=0;entryDy=0;curved=1;" edge="1" parent="1" source="hEBUWR5Z7KPlfxJ665o2-22" target="zKheHPCC7T8ApLlYYGeJ-2">
          <mxGeometry width="50" height="50" relative="1" as="geometry">
            <mxPoint x="790" y="370" as="sourcePoint" />
            <mxPoint x="840" y="320" as="targetPoint" />
            <Array as="points">
              <mxPoint x="950" y="340" />
            </Array>
          </mxGeometry>
        </mxCell>
        <mxCell id="4WT0cPkqcqAhJk5FBI5L-11" value="" style="endArrow=classic;html=1;exitX=0.5;exitY=0;exitDx=0;exitDy=0;entryX=-0.006;entryY=0.549;entryDx=0;entryDy=0;curved=1;entryPerimeter=0;" edge="1" parent="1" source="QWXrXlOP-lTuG6fcTBHB-6" target="zKheHPCC7T8ApLlYYGeJ-2">
          <mxGeometry width="50" height="50" relative="1" as="geometry">
            <mxPoint x="790" y="370" as="sourcePoint" />
            <mxPoint x="840" y="320" as="targetPoint" />
            <Array as="points">
              <mxPoint x="940" y="410" />
            </Array>
          </mxGeometry>
        </mxCell>
        <mxCell id="X2xWG3vY_pCT8LMNvTdC-4" value="Voter Application&lt;br&gt;Central Authority Application" style="rounded=1;whiteSpace=wrap;html=1;fillColor=#d5e8d4;strokeColor=#82b366;" vertex="1" parent="1">
          <mxGeometry x="380" y="360" width="210" height="305" as="geometry" />
        </mxCell>
        <mxCell id="WcA4iUwE_vREh9-GHDjG-1" value="" style="endArrow=classic;html=1;rounded=0;exitX=1;exitY=0.25;exitDx=0;exitDy=0;entryX=0;entryY=0.5;entryDx=0;entryDy=0;fillColor=#0050ef;strokeColor=#001DBC;edgeStyle=orthogonalEdgeStyle;curved=1;" edge="1" parent="1" source="X2xWG3vY_pCT8LMNvTdC-4" target="hEBUWR5Z7KPlfxJ665o2-22">
          <mxGeometry width="50" height="50" relative="1" as="geometry">
            <mxPoint x="710" y="450" as="sourcePoint" />
            <mxPoint x="760" y="400" as="targetPoint" />
            <Array as="points">
              <mxPoint x="650" y="436" />
              <mxPoint x="650" y="345" />
            </Array>
          </mxGeometry>
        </mxCell>
        <mxCell id="WcA4iUwE_vREh9-GHDjG-3" value="Vote with&lt;br&gt;RingCT / LRS" style="edgeLabel;html=1;align=center;verticalAlign=middle;resizable=0;points=[];fontSize=13;" connectable="0" vertex="1" parent="WcA4iUwE_vREh9-GHDjG-1">
          <mxGeometry x="0.0768" y="-1" relative="1" as="geometry">
            <mxPoint as="offset" />
          </mxGeometry>
        </mxCell>
        <mxCell id="WcA4iUwE_vREh9-GHDjG-2" value="" style="endArrow=classic;html=1;exitX=1;exitY=0.5;exitDx=0;exitDy=0;edgeStyle=orthogonalEdgeStyle;fillColor=#e51400;strokeColor=#B20000;entryX=0;entryY=1;entryDx=0;entryDy=0;rounded=1;" edge="1" parent="1" source="X2xWG3vY_pCT8LMNvTdC-4" target="hEBUWR5Z7KPlfxJ665o2-22">
          <mxGeometry width="50" height="50" relative="1" as="geometry">
            <mxPoint x="470" y="510" as="sourcePoint" />
            <mxPoint x="750" y="375" as="targetPoint" />
            <Array as="points">
              <mxPoint x="660" y="513" />
              <mxPoint x="660" y="450" />
              <mxPoint x="700" y="450" />
              <mxPoint x="700" y="360" />
            </Array>
          </mxGeometry>
        </mxCell>
        <mxCell id="WcA4iUwE_vREh9-GHDjG-5" value="Query the Ledger" style="edgeLabel;html=1;align=center;verticalAlign=middle;resizable=0;points=[];" connectable="0" vertex="1" parent="WcA4iUwE_vREh9-GHDjG-2">
          <mxGeometry x="0.2" relative="1" as="geometry">
            <mxPoint x="-33" y="35" as="offset" />
          </mxGeometry>
        </mxCell>
        <mxCell id="PmpyMem9dGmllzrmRg78-2" value="chaincode" style="shape=tape;whiteSpace=wrap;html=1;strokeWidth=2;size=0.19" vertex="1" parent="1">
          <mxGeometry x="880" y="62.5" width="73.21" height="97.5" as="geometry" />
        </mxCell>
        <mxCell id="WcA4iUwE_vREh9-GHDjG-4" value="Ledger" style="shape=datastore;whiteSpace=wrap;html=1;" vertex="1" parent="1">
          <mxGeometry x="760" y="77.5" width="60" height="60" as="geometry" />
        </mxCell>
        <mxCell id="WcA4iUwE_vREh9-GHDjG-6" value="" style="shape=image;verticalLabelPosition=bottom;labelBackgroundColor=default;verticalAlign=top;aspect=fixed;imageAspect=0;image=data:image/svg+xml,PHN2ZyB4bWxucz0iaHR0cDovL3d3dy53My5vcmcvMjAwMC9zdmciIHZpZXdCb3g9IjAgMCA0NDIuMzcgMjcwLjkyOSIgdmVyc2lvbj0iMS4yIiBoZWlnaHQ9IjM2MS4yMzgiIHdpZHRoPSI1ODkuODI3Ij48ZGVmcz48Y2xpcFBhdGggaWQ9ImEiPjxwYXRoIGQ9Ik0yMzkuMDMgMjI2LjYwNWwtNDIuMTMgMjQuMzE3Yy0xLjU3OC45MS0yLjU0NiAyLjU5LTIuNTQ2IDQuNDA2djQ4LjY2OGMwIDEuODE3Ljk2OCAzLjQ5NiAyLjU0NiA0LjQwNmw0Mi4xMzMgMjQuMzM2YzEuNTc1LjkwNyAzLjUxNy45MDcgNS4wOSAwbDQyLjEyNi0yNC4zMzZjMS41Ny0uOTEgMi41NC0yLjU5IDIuNTQtNC40MDZ2LTQ4LjY2OGMwLTEuODE2LS45Ny0zLjQ5Ni0yLjU1LTQuNDA2bC00Mi4xMi0yNC4zMTdjLS43OS0uNDUzLTEuNjctLjY4LTIuNTUtLjY4LS44OCAwLTEuNzYuMjI3LTIuNTUuNjgiLz48L2NsaXBQYXRoPjxsaW5lYXJHcmFkaWVudCBncmFkaWVudFVuaXRzPSJ1c2VyU3BhY2VPblVzZSIgZ3JhZGllbnRUcmFuc2Zvcm09InJvdGF0ZSgxMTYuMTE0IDUzLjEgMjAyLjk3KSBzY2FsZSg4Ni40OCkiIHgyPSIxLjI1MSIgeDE9Ii0uMzQ4IiBpZD0iYiI+PHN0b3Agc3RvcC1jb2xvcj0iIzNFODYzRCIgb2Zmc2V0PSIuMyIvPjxzdG9wIHN0b3AtY29sb3I9IiM1NTkzNEYiIG9mZnNldD0iLjUiLz48c3RvcCBzdG9wLWNvbG9yPSIjNUFBRDQ1IiBvZmZzZXQ9Ii44Ii8+PC9saW5lYXJHcmFkaWVudD48Y2xpcFBhdGggaWQ9ImMiPjxwYXRoIGQ9Ik0xOTUuMzk4IDMwNy4wODZjLjQwMy41MjMuOTA3Ljk3NiAxLjUgMS4zMTZsMzYuMTQgMjAuODc1IDYuMDIgMy40NmMuOS41MiAxLjkyNi43NCAyLjkzNC42NjUuMzM2LS4wMjcuNjcyLS4wOSAxLS4xODNsNDQuNDM0LTgxLjM2Yy0uMzQtLjM3LS43MzgtLjY4LTEuMTg0LS45NGwtMjcuNTg2LTE1LjkzLTE0LjU4Mi04LjM5Yy0uNDE0LS4yNC0uODYzLS40MS0xLjMyLS41M3ptMCAwIi8+PC9jbGlwUGF0aD48bGluZWFyR3JhZGllbnQgZ3JhZGllbnRVbml0cz0idXNlclNwYWNlT25Vc2UiIGdyYWRpZW50VHJhbnNmb3JtPSJyb3RhdGUoLTM2LjQ2IDU1MC44NDYgLTIxNC4zMzcpIHNjYWxlKDEzMi43OTgpIiB4Mj0iLjU4MiIgeDE9Ii0uNDU2IiBpZD0iZCI+PHN0b3Agc3RvcC1jb2xvcj0iIzNFODYzRCIgb2Zmc2V0PSIuNTciLz48c3RvcCBzdG9wLWNvbG9yPSIjNjE5ODU3IiBvZmZzZXQ9Ii43MiIvPjxzdG9wIHN0b3AtY29sb3I9IiM3NkFDNjQiIG9mZnNldD0iMSIvPjwvbGluZWFyR3JhZGllbnQ+PGNsaXBQYXRoIGlkPSJlIj48cGF0aCBkPSJNMjQxLjA2NiAyMjUuOTUzYy0uNzA3LjA3LTEuMzk4LjI5LTIuMDM1LjY1MmwtNDIuMDEgMjQuMjQ3IDQ1LjMgODIuNTFjLjYzLS4wOSAxLjI1LS4zIDEuODEtLjYyNGw0Mi4xMy0yNC4zMzZjMS4zLS43NTQgMi4xOS0yLjAzIDIuNDYtMy40NzZsLTQ2LjE4LTc4Ljg5Yy0uMzQtLjA2Ny0uNjgtLjEwMi0xLjAzLS4xMDItLjE0IDAtLjI4LjAwNy0uNDIuMDIiLz48L2NsaXBQYXRoPjxsaW5lYXJHcmFkaWVudCBncmFkaWVudFVuaXRzPSJ1c2VyU3BhY2VPblVzZSIgZ3JhZGllbnRUcmFuc2Zvcm09InRyYW5zbGF0ZSgxOTIuODYyIDI3OS42NTIpIHNjYWxlKDk3LjQxNykiIHgyPSIuOTg0IiB4MT0iLjA0MyIgaWQ9ImYiPjxzdG9wIHN0b3AtY29sb3I9IiM2QkJGNDciIG9mZnNldD0iLjE2Ii8+PHN0b3Agc3RvcC1jb2xvcj0iIzc5QjQ2MSIgb2Zmc2V0PSIuMzgiLz48c3RvcCBzdG9wLWNvbG9yPSIjNzVBQzY0IiBvZmZzZXQ9Ii40NyIvPjxzdG9wIHN0b3AtY29sb3I9IiM2NTlFNUEiIG9mZnNldD0iLjciLz48c3RvcCBzdG9wLWNvbG9yPSIjM0U4NjNEIiBvZmZzZXQ9Ii45Ii8+PC9saW5lYXJHcmFkaWVudD48L2RlZnM+PHBhdGggZD0iTTIxOC42NDcgMjcwLjkzYy0xLjQ2IDAtMi45MS0uMzgzLTQuMTktMS4xMmwtMTMuMzM3LTcuODk2Yy0xLjk5Mi0xLjExNC0xLjAyLTEuNTA4LS4zNjMtMS43MzUgMi42NTYtLjkzIDMuMTk1LTEuMTQgNi4wMy0yLjc1LjI5OC0uMTcuNjg4LS4xMS45OTMuMDdsMTAuMjQ2IDYuMDhjLjM3LjIuODk1LjIgMS4yMzggMGwzOS45NS0yMy4wNmMuMzctLjIxLjYxLS42NC42MS0xLjA4di00Ni4xYzAtLjQ2LS4yNC0uODctLjYxOC0xLjFsLTM5LjkzNC0yMy4wNGMtLjM3LS4yMi0uODYtLjIyLTEuMjMgMGwtMzkuOTI2IDIzLjA0Yy0uMzg3LjIyLS42MzMuNjUtLjYzMyAxLjA5djQ2LjFjMCAuNDQuMjQuODYuNjIgMS4wN2wxMC45NCA2LjMyYzUuOTQgMi45NyA5LjU3LS41MyA5LjU3LTQuMDV2LTQ1LjVjMC0uNjUuNTEtMS4xNSAxLjE2LTEuMTVoNS4wNmMuNjMgMCAxLjE1LjUgMS4xNSAxLjE1djQ1LjUyYzAgNy45Mi00LjMyIDEyLjQ3LTExLjgzIDEyLjQ3LTIuMzEgMC00LjEzIDAtOS4yMS0yLjVsLTEwLjQ4LTYuMDRjLTIuNTktMS41LTQuMTktNC4zLTQuMTktNy4yOXYtNDYuMWMwLTMgMS42LTUuOCA0LjE5LTcuMjhsMzkuOTktMjMuMDdjMi41My0xLjQzIDUuODktMS40MyA4LjQgMGwzOS45NCAyMy4wOGMyLjU4IDEuNDkgNC4xOSA0LjI4IDQuMTkgNy4yOHY0Ni4xYzAgMi45OS0xLjYxIDUuNzgtNC4xOSA3LjI4bC0zOS45NCAyMy4wN2MtMS4yOC43NC0yLjczIDEuMTItNC4yMSAxLjEyIiBmaWxsPSIjNjg5ZjYzIi8+PHBhdGggZD0iTTIzMC45ODcgMjM5LjE2NGMtMTcuNDggMC0yMS4xNDUtOC4wMjQtMjEuMTQ1LTE0Ljc1NCAwLS42NC41MTYtMS4xNSAxLjE1Ny0xLjE1aDUuMTZjLjU3IDAgMS4wNS40MTUgMS4xNC45NzguNzggNS4yNTggMy4xIDcuOTEgMTMuNjcgNy45MSA4LjQyIDAgMTItMS45MDIgMTItNi4zNjcgMC0yLjU3LTEuMDItNC40OC0xNC4xLTUuNzYtMTAuOTQtMS4wOC0xNy43LTMuNDktMTcuNy0xMi4yNCAwLTguMDYgNi44LTEyLjg2IDE4LjE5LTEyLjg2IDEyLjc5IDAgMTkuMTMgNC40NCAxOS45MyAxMy45OC4wMy4zMy0uMDkuNjUtLjMxLjg5LS4yMi4yMy0uNTMuMzctLjg1LjM3aC01LjE5Yy0uNTQgMC0xLjAxLS4zOC0xLjEyLS45LTEuMjUtNS41My00LjI3LTcuMy0xMi40OC03LjMtOS4xOSAwLTEwLjI2IDMuMi0xMC4yNiA1LjYgMCAyLjkxIDEuMjYgMy43NiAxMy42NiA1LjQgMTIuMjggMS42MyAxOC4xMSAzLjkzIDE4LjExIDEyLjU2IDAgOC43LTcuMjYgMTMuNjktMTkuOTIgMTMuNjltNDguNjYtNDguODloMS4zNGMxLjEgMCAxLjMxLS43NyAxLjMxLTEuMjIgMC0xLjE4LS44MS0xLjE4LTEuMjYtMS4xOGgtMS4zOHptLTEuNjMtMy43OGgyLjk3YzEuMDIgMCAzLjAyIDAgMy4wMiAyLjI4IDAgMS41OS0xLjAyIDEuOTItMS42MyAyLjEyIDEuMTkuMDggMS4yNy44NiAxLjQzIDEuOTYuMDguNjkuMjEgMS44OC40NSAyLjI4aC0xLjgzYy0uMDUtLjQtLjMzLTIuNi0uMzMtMi43Mi0uMTItLjQ5LS4yOS0uNzMtLjktLjczaC0xLjUxdjMuNDZoLTEuNjd6bS0zLjU3IDQuM2MwIDMuNTggMi44OSA2LjQ4IDYuNDQgNi40OCAzLjU4IDAgNi40Ny0yLjk2IDYuNDctNi40OCAwLTMuNTktMi45My02LjQ0LTYuNDgtNi40NC0zLjUgMC02LjQ0IDIuODEtNi40NCA2LjQzbTE0LjE2LjAzYzAgNC4yNC0zLjQ3IDcuNy03LjcgNy43LTQuMiAwLTcuNy0zLjQyLTcuNy03LjcgMC00LjM2IDMuNTgtNy43IDcuNy03LjcgNC4xNSAwIDcuNjkgMy4zNSA3LjY5IDcuNyIgZmlsbD0iIzY4OWY2MyIvPjxwYXRoIGQ9Ik05NC45MzYgOTAuNTVjMC0xLjg0LS45Ny0zLjUzLTIuNTU4LTQuNDQ1bC00Mi4zNTYtMjQuMzdjLS43MTUtLjQyLTEuNTE2LS42NC0yLjMyOC0uNjdoLS40MzhjLS44MTIuMDMtMS42MTMuMjUtMi4zNC42N0wyLjU2MiA4Ni4xMDVDLjk4NCA4Ny4wMjUgMCA4OC43MTUgMCA5MC41NTVsLjA5MyA2NS42NGMwIC45MS40NyAxLjc2IDEuMjcgMi4yMS43OC40OCAxLjc2LjQ4IDIuNTQgMGwyNS4xOC0xNC40MmMxLjU5LS45NDYgMi41Ni0yLjYxOCAyLjU2LTQuNDRWMTA4Ljg4YzAtMS44My45Ny0zLjUyIDIuNTU1LTQuNDNsMTAuNzItNi4xNzRjLjc5Ni0uNDYgMS42Ny0uNjg4IDIuNTYtLjY4OC44NzYgMCAxLjc3LjIyNiAyLjU0NC42ODdsMTAuNzE1IDYuMTcyYzEuNTg2LjkxIDIuNTYgMi42IDIuNTYgNC40M3YzMC42NjNjMCAxLjgyLjk4MyAzLjUgMi41NjUgNC40NGwyNS4xNjQgMTQuNDFjLjc5LjQ3IDEuNzczLjQ3IDIuNTYgMCAuNzc2LS40NSAxLjI2OC0xLjMgMS4yNjgtMi4yMXptMTk5Ljg2OCAzNC4xNzZjMCAuNDU3LS4yNDMuODgtLjY0IDEuMTA2bC0xNC41NDggOC4zODZjLS4zOTUuMjI3LS44ODMuMjI3LTEuMjc3IDBsLTE0LjU1LTguMzg2Yy0uNC0uMjI3LS42NC0uNjUtLjY0LTEuMTA2VjEwNy45M2MwLS40NTguMjQtLjg4LjYzLTEuMTFsMTQuNTQtOC40Yy40LS4yMy44OS0uMjMgMS4yOSAwbDE0LjU1IDguNGMuNC4yMy42NC42NTIuNjQgMS4xMXpNMjk4LjczNC4zMjRjLS43OTQtLjQ0Mi0xLjc2LS40My0yLjU0NC4wMjctLjc4LjQ2LTEuMjYyIDEuMy0xLjI2MiAyLjIxdjY1YzAgLjY0LS4zNCAxLjIzLS44OTQgMS41NS0uNTUuMzItMS4yMzUuMzItMS43OSAwTDI4MS42MzQgNjNjLTEuNTgtLjkxNC0zLjUyNi0uOTE0LTUuMTEyIDBsLTQyLjM3IDI0LjQ1M2MtMS41ODMuOTEtMi41NiAyLjYtMi41NiA0LjQydjQ4LjkyYzAgMS44My45NzcgMy41MSAyLjU2IDQuNDNsNDIuMzcgMjQuNDdjMS41ODIuOTEgMy41My45MSA1LjExNyAwbDQyLjM3LTI0LjQ4YzEuNTgtLjkyIDIuNTYtMi42IDIuNTYtNC40M1YxOC44NjNjMC0xLjg1Ni0xLjAxLTMuNTYzLTIuNjMtNC40N3ptMTQxLjA5MyAxMDcuMTY0YzEuNTc0LS45MTQgMi41NDMtMi42MDIgMi41NDMtNC40MjJWOTEuMjFjMC0xLjgyNC0uOTctMy41MDctMi41NDctNC40MjVsLTQyLjEtMjQuNDRjLTEuNTktLjkyLTMuNTQtLjkyLTUuMTMgMGwtNDIuMzYgMjQuNDVjLTEuNTkuOTItMi41NiAyLjYtMi41NiA0LjQzdjQ4LjljMCAxLjg0Ljk5IDMuNTQgMi41OCA0LjQ1bDQyLjA5IDIzLjk5YzEuNTUuODkgMy40NS45IDUuMDIuMDNsMjUuNDYtMTQuMTVjLjgtLjQ1IDEuMzEtMS4zIDEuMzEtMi4yMiAwLS45Mi0uNDktMS43OC0xLjI5LTIuMjNsLTQyLjYyLTI0LjQ2Yy0uOC0uNDUtMS4yOS0xLjMtMS4yOS0yLjIxdi0xNS4zNGMwLS45MTYuNDgtMS43NiAxLjI4LTIuMjE2bDEzLjI2LTcuNjVjLjc5LS40NiAxLjc2LS40NiAyLjU1IDBsMTMuMjcgNy42NWMuNzkuNDUgMS4yOCAxLjMgMS4yOCAyLjIxdjEyLjA2YzAgLjkxLjQ5IDEuNzYgMS4yOCAyLjIyLjc5LjQ1IDEuNzcuNDUgMi41Ni0uMDF6bTAgMCIgZmlsbC1ydWxlPSJldmVub2RkIiBmaWxsPSIjMzMzIi8+PHBhdGggZD0iTTM5NC41MzggMTA1LjJjLjMtLjE3Ny42NzYtLjE3Ny45OCAwbDguMTMgNC42OWMuMzA0LjE3Ni40OS41LjQ5Ljg1djkuMzljMCAuMzUtLjE4Ni42NzQtLjQ5Ljg1bC04LjEzIDQuNjljLS4zMDQuMTc3LS42OC4xNzctLjk4IDBsLTguMTI1LTQuNjljLS4zMS0uMTc2LS41LS41LS41LS44NXYtOS4zOWMwLS4zNS4xOC0uNjc0LjQ5LS44NXptMCAwIiBmaWxsLXJ1bGU9ImV2ZW5vZGQiIGZpbGw9IiM2ODlmNjMiLz48ZyB0cmFuc2Zvcm09InRyYW5zbGF0ZSgtNzguMzA2IC0xNjQuMDE2KSIgY2xpcC1wYXRoPSJ1cmwoI2EpIj48cGF0aCBkPSJNMzMxLjM2MyAyNDYuNzkzbC0xMTguNzE1LTU4LjE5LTYwLjg3IDEyNC4xNzRMMjcwLjQ5IDM3MC45N3ptMCAwIiBmaWxsPSJ1cmwoI2IpIi8+PC9nPjxnIHRyYW5zZm9ybT0idHJhbnNsYXRlKC03OC4zMDYgLTE2NC4wMTYpIiBjbGlwLXBhdGg9InVybCgjYykiPjxwYXRoIGQ9Ik0xNDQuMDcgMjY0LjAwNGw4My44MjUgMTEzLjQ1MyAxMTAuODYtODEuOTA2LTgzLjgzLTExMy40NXptMCAwIiBmaWxsPSJ1cmwoI2QpIi8+PC9nPjxnIHRyYW5zZm9ybT0idHJhbnNsYXRlKC03OC4zMDYgLTE2NC4wMTYpIiBjbGlwLXBhdGg9InVybCgjZSkiPjxwYXRoIGQ9Ik0xOTcuMDIgMjI1LjkzNHYxMDcuNDNoOTEuNjgzdi0xMDcuNDN6bTAgMCIgZmlsbD0idXJsKCNmKSIvPjwvZz48L3N2Zz4=;" vertex="1" parent="1">
          <mxGeometry x="411.45" y="560" width="147.09" height="90" as="geometry" />
        </mxCell>
      </root>
    </mxGraphModel>
  </diagram>
</mxfile>
